<svg width="131" height="13" viewBox="0 0 131 13" fill="none" xmlns="http://www.w3.org/2000/svg">
<g filter="url(#filter0_b_104_1505)">
<path d="M1.918 9.58C1.918 9.692 1.876 9.79 1.792 9.874C1.708 9.958 1.61 10 1.498 10C1.37667 10 1.274 9.958 1.19 9.874C1.11533 9.79 1.078 9.692 1.078 9.58V3.14C1.078 3.028 1.11533 2.93 1.19 2.846C1.274 2.762 1.37667 2.72 1.498 2.72C1.61933 2.72 1.71733 2.762 1.792 2.846C1.876 2.93 1.918 3.028 1.918 3.14V9.58ZM1.498 1.782C1.302 1.782 1.15267 1.74 1.05 1.656C0.956667 1.56267 0.91 1.432 0.91 1.264V1.124C0.91 0.956 0.961333 0.83 1.064 0.746C1.176 0.652667 1.32533 0.606 1.512 0.606C1.68933 0.606 1.82467 0.652667 1.918 0.746C2.02067 0.83 2.072 0.956 2.072 1.124V1.264C2.072 1.432 2.02067 1.56267 1.918 1.656C1.82467 1.74 1.68467 1.782 1.498 1.782ZM21.4741 2.678C22.0901 2.678 22.5801 2.804 22.9441 3.056C23.3175 3.29867 23.5835 3.63467 23.7421 4.064C23.9101 4.484 23.9941 4.95067 23.9941 5.464V9.58C23.9941 9.692 23.9521 9.79 23.8681 9.874C23.7841 9.958 23.6861 10 23.5741 10C23.4435 10 23.3408 9.958 23.2661 9.874C23.1915 9.79 23.1541 9.692 23.1541 9.58V5.506C23.1541 5.13267 23.0935 4.792 22.9721 4.484C22.8508 4.176 22.6501 3.92867 22.3701 3.742C22.0995 3.55533 21.7401 3.462 21.2921 3.462C20.8908 3.462 20.5081 3.55533 20.1441 3.742C19.7895 3.92867 19.5001 4.176 19.2761 4.484C19.0521 4.792 18.9401 5.13267 18.9401 5.506V9.58C18.9401 9.692 18.8981 9.79 18.8141 9.874C18.7301 9.958 18.6321 10 18.5201 10C18.3895 10 18.2868 9.958 18.2121 9.874C18.1375 9.79 18.1001 9.692 18.1001 9.58V3.308C18.1001 3.196 18.1375 3.098 18.2121 3.014C18.2961 2.93 18.3988 2.888 18.5201 2.888C18.6415 2.888 18.7395 2.93 18.8141 3.014C18.8981 3.098 18.9401 3.196 18.9401 3.308V4.484L18.6181 4.988C18.6368 4.68933 18.7301 4.40467 18.8981 4.134C19.0755 3.854 19.2995 3.60667 19.5701 3.392C19.8408 3.168 20.1395 2.99533 20.4661 2.874C20.8021 2.74333 21.1381 2.678 21.4741 2.678ZM39.7879 8.866C39.7132 8.754 39.6759 8.64667 39.6759 8.544C39.6852 8.432 39.7459 8.34333 39.8579 8.278C39.9326 8.21267 40.0166 8.18467 40.1099 8.194C40.2126 8.20333 40.3059 8.25 40.3899 8.334C40.6419 8.66067 40.9452 8.92667 41.2999 9.132C41.6639 9.328 42.0932 9.426 42.5879 9.426C42.8492 9.426 43.1059 9.384 43.3579 9.3C43.6192 9.20667 43.8339 9.07133 44.0019 8.894C44.1699 8.70733 44.2539 8.474 44.2539 8.194C44.2539 7.90467 44.1699 7.67133 44.0019 7.494C43.8339 7.31667 43.6146 7.17667 43.3439 7.074C43.0826 6.97133 42.8026 6.88267 42.5039 6.808C42.1866 6.724 41.8786 6.63067 41.5799 6.528C41.2812 6.416 41.0152 6.28067 40.7819 6.122C40.5579 5.954 40.3759 5.75333 40.2359 5.52C40.0959 5.28667 40.0259 5.002 40.0259 4.666C40.0259 4.274 40.1332 3.92867 40.3479 3.63C40.5626 3.33133 40.8519 3.098 41.2159 2.93C41.5892 2.762 42.0092 2.678 42.4759 2.678C42.7092 2.678 42.9612 2.71067 43.2319 2.776C43.5026 2.832 43.7686 2.93 44.0299 3.07C44.2912 3.21 44.5246 3.40133 44.7299 3.644C44.8139 3.728 44.8559 3.826 44.8559 3.938C44.8559 4.04067 44.8092 4.134 44.7159 4.218C44.6412 4.274 44.5526 4.302 44.4499 4.302C44.3566 4.302 44.2772 4.26467 44.2119 4.19C43.9879 3.938 43.7219 3.74667 43.4139 3.616C43.1059 3.48533 42.7746 3.42 42.4199 3.42C42.1492 3.42 41.8926 3.46667 41.6499 3.56C41.4166 3.644 41.2206 3.77467 41.0619 3.952C40.9032 4.12933 40.8239 4.36267 40.8239 4.652C40.8426 4.92267 40.9359 5.142 41.1039 5.31C41.2812 5.478 41.5099 5.618 41.7899 5.73C42.0792 5.842 42.4012 5.94467 42.7559 6.038C43.0546 6.11267 43.3392 6.20133 43.6099 6.304C43.8899 6.40667 44.1326 6.53733 44.3379 6.696C44.5526 6.84533 44.7206 7.03667 44.8419 7.27C44.9726 7.50333 45.0379 7.79733 45.0379 8.152C45.0379 8.56267 44.9212 8.91733 44.6879 9.216C44.4639 9.51467 44.1606 9.74333 43.7779 9.902C43.3952 10.0607 42.9706 10.14 42.5039 10.14C41.9999 10.14 41.5099 10.042 41.0339 9.846C40.5672 9.65 40.1519 9.32333 39.7879 8.866ZM64.1584 2.79C64.7931 2.79 65.3531 2.94867 65.8384 3.266C66.3331 3.574 66.7251 4.00333 67.0144 4.554C67.3037 5.09533 67.4484 5.72067 67.4484 6.43C67.4484 7.13933 67.3037 7.76933 67.0144 8.32C66.7251 8.87067 66.3331 9.30467 65.8384 9.622C65.3437 9.93933 64.7884 10.098 64.1724 10.098C63.8457 10.098 63.5331 10.0513 63.2344 9.958C62.9451 9.85533 62.6791 9.72 62.4364 9.552C62.1937 9.384 61.9791 9.188 61.7924 8.964C61.6057 8.73067 61.4564 8.47867 61.3444 8.208L61.5964 8.026V12.38C61.5964 12.492 61.5544 12.59 61.4704 12.674C61.3957 12.758 61.2977 12.8 61.1764 12.8C61.0551 12.8 60.9524 12.758 60.8684 12.674C60.7937 12.59 60.7564 12.492 60.7564 12.38V3.252C60.7564 3.13067 60.7937 3.028 60.8684 2.944C60.9431 2.86 61.0457 2.818 61.1764 2.818C61.2977 2.818 61.3957 2.86 61.4704 2.944C61.5544 3.028 61.5964 3.13067 61.5964 3.252V4.764L61.4004 4.652C61.4937 4.36267 61.6291 4.106 61.8064 3.882C61.9931 3.64867 62.2077 3.45267 62.4504 3.294C62.6931 3.126 62.9591 3 63.2484 2.916C63.5377 2.832 63.8411 2.79 64.1584 2.79ZM64.0884 3.574C63.5844 3.574 63.1411 3.7 62.7584 3.952C62.3757 4.19467 62.0724 4.53067 61.8484 4.96C61.6337 5.38 61.5264 5.87 61.5264 6.43C61.5264 6.98067 61.6337 7.47533 61.8484 7.914C62.0724 8.35267 62.3757 8.698 62.7584 8.95C63.1411 9.19267 63.5844 9.314 64.0884 9.314C64.5831 9.314 65.0171 9.19267 65.3904 8.95C65.7731 8.698 66.0764 8.35267 66.3004 7.914C66.5244 7.47533 66.6364 6.98067 66.6364 6.43C66.6364 5.87933 66.5244 5.38933 66.3004 4.96C66.0764 4.53067 65.7731 4.19467 65.3904 3.952C65.0171 3.7 64.5831 3.574 64.0884 3.574ZM86.4806 10.14C85.762 10.14 85.1273 9.986 84.5766 9.678C84.026 9.37 83.5966 8.94067 83.2886 8.39C82.9806 7.83933 82.8266 7.19533 82.8266 6.458C82.8266 5.66467 82.9806 4.988 83.2886 4.428C83.606 3.868 84.012 3.43867 84.5066 3.14C85.0106 2.832 85.5426 2.678 86.1026 2.678C86.5133 2.678 86.91 2.75267 87.2926 2.902C87.6846 3.042 88.03 3.25667 88.3286 3.546C88.6366 3.826 88.8793 4.17133 89.0566 4.582C89.2433 4.99267 89.346 5.46867 89.3646 6.01C89.3553 6.122 89.3086 6.22 89.2246 6.304C89.1406 6.37867 89.0426 6.416 88.9306 6.416H83.3166L83.1486 5.66H88.6646L88.4826 5.828V5.548C88.4453 5.10933 88.3053 4.736 88.0626 4.428C87.82 4.12 87.526 3.88667 87.1806 3.728C86.8353 3.56933 86.476 3.49 86.1026 3.49C85.8226 3.49 85.5333 3.546 85.2346 3.658C84.9453 3.77 84.6793 3.94733 84.4366 4.19C84.2033 4.42333 84.012 4.72667 83.8626 5.1C83.7133 5.464 83.6386 5.898 83.6386 6.402C83.6386 6.95267 83.7506 7.452 83.9746 7.9C84.1986 8.348 84.5206 8.70267 84.9406 8.964C85.37 9.22533 85.8786 9.356 86.4666 9.356C86.7933 9.356 87.0873 9.30933 87.3486 9.216C87.61 9.12267 87.8386 9.00133 88.0346 8.852C88.2306 8.69333 88.394 8.53 88.5246 8.362C88.6273 8.278 88.73 8.236 88.8326 8.236C88.926 8.236 89.0053 8.27333 89.0706 8.348C89.1453 8.42267 89.1826 8.50667 89.1826 8.6C89.1826 8.712 89.136 8.81 89.0426 8.894C88.7626 9.23 88.3986 9.524 87.9506 9.776C87.5026 10.0187 87.0126 10.14 86.4806 10.14ZM105.583 10C105.452 10 105.349 9.958 105.275 9.874C105.2 9.79 105.163 9.692 105.163 9.58V3.308C105.163 3.196 105.2 3.098 105.275 3.014C105.359 2.93 105.461 2.888 105.583 2.888C105.704 2.888 105.802 2.93 105.877 3.014C105.961 3.098 106.003 3.196 106.003 3.308V5.408L105.793 5.45C105.821 5.12333 105.9 4.80133 106.031 4.484C106.171 4.15733 106.357 3.85867 106.591 3.588C106.824 3.31733 107.099 3.098 107.417 2.93C107.743 2.762 108.107 2.678 108.509 2.678C108.677 2.678 108.84 2.71533 108.999 2.79C109.157 2.85533 109.237 2.96733 109.237 3.126C109.237 3.266 109.199 3.37333 109.125 3.448C109.05 3.52267 108.961 3.56 108.859 3.56C108.775 3.56 108.681 3.53667 108.579 3.49C108.485 3.44333 108.359 3.42 108.201 3.42C107.939 3.42 107.678 3.49933 107.417 3.658C107.155 3.80733 106.917 4.01267 106.703 4.274C106.488 4.53533 106.315 4.82933 106.185 5.156C106.063 5.47333 106.003 5.79533 106.003 6.122V9.58C106.003 9.692 105.961 9.79 105.877 9.874C105.793 9.958 105.695 10 105.583 10ZM129.883 2.72C130.005 2.72 130.103 2.762 130.177 2.846C130.261 2.93 130.303 3.028 130.303 3.14V9.314C130.303 10.07 130.154 10.7047 129.855 11.218C129.557 11.7407 129.155 12.1327 128.651 12.394C128.147 12.6647 127.573 12.8 126.929 12.8C126.528 12.8 126.155 12.7533 125.809 12.66C125.473 12.576 125.198 12.464 124.983 12.324C124.871 12.2587 124.787 12.1793 124.731 12.086C124.675 11.9927 124.671 11.8947 124.717 11.792C124.764 11.6613 124.834 11.5727 124.927 11.526C125.03 11.4887 125.133 11.4933 125.235 11.54C125.394 11.624 125.623 11.7267 125.921 11.848C126.22 11.9693 126.561 12.03 126.943 12.03C127.457 12.03 127.9 11.9227 128.273 11.708C128.656 11.4933 128.95 11.1807 129.155 10.77C129.361 10.3687 129.463 9.888 129.463 9.328V8.32L129.561 8.656C129.421 8.94533 129.221 9.202 128.959 9.426C128.707 9.65 128.413 9.82733 128.077 9.958C127.751 10.0793 127.401 10.14 127.027 10.14C126.467 10.14 126.001 10.028 125.627 9.804C125.263 9.57067 124.993 9.25333 124.815 8.852C124.638 8.45067 124.549 7.97933 124.549 7.438V3.14C124.549 3.028 124.587 2.93 124.661 2.846C124.736 2.762 124.839 2.72 124.969 2.72C125.091 2.72 125.189 2.762 125.263 2.846C125.347 2.93 125.389 3.028 125.389 3.14V7.312C125.389 7.96533 125.529 8.46933 125.809 8.824C126.099 9.17867 126.565 9.356 127.209 9.356C127.611 9.356 127.979 9.26267 128.315 9.076C128.651 8.88 128.927 8.628 129.141 8.32C129.356 8.00267 129.463 7.66667 129.463 7.312V3.14C129.463 3.028 129.501 2.93 129.575 2.846C129.659 2.762 129.762 2.72 129.883 2.72Z" fill="white" fill-opacity="0.4"/>
</g>
<defs>
<filter id="filter0_b_104_1505" x="-3.09009" y="-3.394" width="137.394" height="20.194" filterUnits="userSpaceOnUse" color-interpolation-filters="sRGB">
<feFlood flood-opacity="0" result="BackgroundImageFix"/>
<feGaussianBlur in="BackgroundImage" stdDeviation="2"/>
<feComposite in2="SourceAlpha" operator="in" result="effect1_backgroundBlur_104_1505"/>
<feBlend mode="normal" in="SourceGraphic" in2="effect1_backgroundBlur_104_1505" result="shape"/>
</filter>
</defs>
</svg>
