<svg width="79" height="38" viewBox="0 0 79 38" fill="none" xmlns="http://www.w3.org/2000/svg">
<g filter="url(#filter0_b_104_1525)">
<path d="M5.054 5.2C5.57667 5.2 6.03867 5.32133 6.44 5.564C6.84133 5.79733 7.15867 6.124 7.392 6.544C7.62533 6.964 7.742 7.44467 7.742 7.986C7.742 8.52733 7.62533 9.01733 7.392 9.456C7.15867 9.88533 6.84133 10.226 6.44 10.478C6.03867 10.73 5.57667 10.856 5.054 10.856H2.086L2.156 10.716V14.58C2.156 14.692 2.114 14.79 2.03 14.874C1.946 14.958 1.848 15 1.736 15C1.60533 15 1.50267 14.958 1.428 14.874C1.35333 14.79 1.316 14.692 1.316 14.58V5.62C1.316 5.508 1.358 5.41 1.442 5.326C1.526 5.242 1.624 5.2 1.736 5.2H5.054ZM5.054 10.044C5.418 10.044 5.73533 9.95533 6.006 9.778C6.27667 9.59133 6.48667 9.344 6.636 9.036C6.79467 8.71867 6.874 8.36867 6.874 7.986C6.874 7.60333 6.79467 7.26733 6.636 6.978C6.48667 6.67933 6.27667 6.446 6.006 6.278C5.73533 6.11 5.418 6.026 5.054 6.026H2.086L2.156 5.9V10.128L2.072 10.044H5.054ZM18.3918 10.1C18.3918 10.8373 18.2752 11.514 18.0418 12.13C17.8178 12.7367 17.4958 13.2687 17.0758 13.726C16.6558 14.174 16.1565 14.524 15.5778 14.776C15.0085 15.0187 14.3832 15.14 13.7018 15.14C13.0205 15.14 12.3905 15.0187 11.8118 14.776C11.2425 14.524 10.7478 14.174 10.3278 13.726C9.90784 13.2687 9.58118 12.7367 9.34784 12.13C9.12384 11.514 9.01184 10.8373 9.01184 10.1C9.01184 9.36267 9.12384 8.69067 9.34784 8.084C9.58118 7.468 9.90784 6.936 10.3278 6.488C10.7478 6.03067 11.2425 5.68067 11.8118 5.438C12.3905 5.186 13.0205 5.06 13.7018 5.06C14.3832 5.06 15.0085 5.186 15.5778 5.438C16.1565 5.68067 16.6558 6.03067 17.0758 6.488C17.4958 6.936 17.8178 7.468 18.0418 8.084C18.2752 8.69067 18.3918 9.36267 18.3918 10.1ZM17.4958 10.1C17.4958 9.26933 17.3325 8.54133 17.0058 7.916C16.6885 7.28133 16.2452 6.78667 15.6758 6.432C15.1065 6.07733 14.4485 5.9 13.7018 5.9C12.9645 5.9 12.3065 6.07733 11.7278 6.432C11.1585 6.78667 10.7105 7.28133 10.3838 7.916C10.0665 8.54133 9.90784 9.26933 9.90784 10.1C9.90784 10.9307 10.0665 11.6633 10.3838 12.298C10.7105 12.9233 11.1585 13.4133 11.7278 13.768C12.3065 14.1227 12.9645 14.3 13.7018 14.3C14.4485 14.3 15.1065 14.1227 15.6758 13.768C16.2452 13.4133 16.6885 12.9233 17.0058 12.298C17.3325 11.6633 17.4958 10.9307 17.4958 10.1ZM23.0766 15.14C22.3673 15.1493 21.7513 15.0373 21.2286 14.804C20.7059 14.5707 20.2066 14.2207 19.7306 13.754C19.6839 13.7167 19.6419 13.67 19.6046 13.614C19.5766 13.558 19.5626 13.4927 19.5626 13.418C19.5626 13.306 19.6046 13.2033 19.6886 13.11C19.7819 13.0167 19.8846 12.97 19.9966 12.97C20.1086 12.97 20.2113 13.0167 20.3046 13.11C20.6686 13.502 21.0793 13.8007 21.5366 14.006C22.0033 14.2113 22.5026 14.314 23.0346 14.314C23.4826 14.314 23.8793 14.244 24.2246 14.104C24.5793 13.964 24.8593 13.7633 25.0646 13.502C25.2699 13.2407 25.3726 12.9373 25.3726 12.592C25.3726 12.1627 25.2559 11.8173 25.0226 11.556C24.7893 11.2853 24.4813 11.066 24.0986 10.898C23.7159 10.7207 23.2913 10.562 22.8246 10.422C22.4419 10.31 22.0779 10.184 21.7326 10.044C21.3873 9.89467 21.0793 9.71733 20.8086 9.512C20.5379 9.29733 20.3279 9.036 20.1786 8.728C20.0293 8.42 19.9546 8.04667 19.9546 7.608C19.9546 7.11333 20.0853 6.67467 20.3466 6.292C20.6079 5.90933 20.9766 5.61067 21.4526 5.396C21.9379 5.172 22.4979 5.06 23.1326 5.06C23.6833 5.06 24.2106 5.15333 24.7146 5.34C25.2279 5.52667 25.6339 5.802 25.9326 6.166C26.0726 6.31533 26.1426 6.45067 26.1426 6.572C26.1426 6.66533 26.0959 6.75867 26.0026 6.852C25.9093 6.94533 25.8066 6.992 25.6946 6.992C25.6013 6.992 25.5219 6.95933 25.4566 6.894C25.2979 6.698 25.0973 6.52533 24.8546 6.376C24.6119 6.21733 24.3413 6.096 24.0426 6.012C23.7533 5.928 23.4499 5.886 23.1326 5.886C22.6939 5.886 22.2973 5.956 21.9426 6.096C21.5973 6.22667 21.3219 6.418 21.1166 6.67C20.9206 6.922 20.8226 7.22533 20.8226 7.58C20.8226 7.972 20.9346 8.294 21.1586 8.546C21.3826 8.798 21.6766 9.008 22.0406 9.176C22.4046 9.33467 22.7919 9.484 23.2026 9.624C23.6039 9.736 23.9866 9.86667 24.3506 10.016C24.7239 10.156 25.0506 10.3333 25.3306 10.548C25.6199 10.7627 25.8439 11.0333 26.0026 11.36C26.1706 11.6867 26.2546 12.0973 26.2546 12.592C26.2546 13.068 26.1193 13.4973 25.8486 13.88C25.5779 14.2627 25.2046 14.566 24.7286 14.79C24.2619 15.014 23.7113 15.1307 23.0766 15.14Z" fill="white" fill-opacity="0.4"/>
</g>
<g filter="url(#filter1_b_104_1525)">
<path d="M35.018 34.14C34.3087 34.1493 33.6927 34.0373 33.17 33.804C32.6473 33.5707 32.148 33.2207 31.672 32.754C31.6253 32.7167 31.5833 32.67 31.546 32.614C31.518 32.558 31.504 32.4927 31.504 32.418C31.504 32.306 31.546 32.2033 31.63 32.11C31.7233 32.0167 31.826 31.97 31.938 31.97C32.05 31.97 32.1527 32.0167 32.246 32.11C32.61 32.502 33.0207 32.8007 33.478 33.006C33.9447 33.2113 34.444 33.314 34.976 33.314C35.424 33.314 35.8207 33.244 36.166 33.104C36.5207 32.964 36.8007 32.7633 37.006 32.502C37.2113 32.2407 37.314 31.9373 37.314 31.592C37.314 31.1627 37.1973 30.8173 36.964 30.556C36.7307 30.2853 36.4227 30.066 36.04 29.898C35.6573 29.7207 35.2327 29.562 34.766 29.422C34.3833 29.31 34.0193 29.184 33.674 29.044C33.3287 28.8947 33.0207 28.7173 32.75 28.512C32.4793 28.2973 32.2693 28.036 32.12 27.728C31.9707 27.42 31.896 27.0467 31.896 26.608C31.896 26.1133 32.0267 25.6747 32.288 25.292C32.5493 24.9093 32.918 24.6107 33.394 24.396C33.8793 24.172 34.4393 24.06 35.074 24.06C35.6247 24.06 36.152 24.1533 36.656 24.34C37.1693 24.5267 37.5753 24.802 37.874 25.166C38.014 25.3153 38.084 25.4507 38.084 25.572C38.084 25.6653 38.0373 25.7587 37.944 25.852C37.8507 25.9453 37.748 25.992 37.636 25.992C37.5427 25.992 37.4633 25.9593 37.398 25.894C37.2393 25.698 37.0387 25.5253 36.796 25.376C36.5533 25.2173 36.2827 25.096 35.984 25.012C35.6947 24.928 35.3913 24.886 35.074 24.886C34.6353 24.886 34.2387 24.956 33.884 25.096C33.5387 25.2267 33.2633 25.418 33.058 25.67C32.862 25.922 32.764 26.2253 32.764 26.58C32.764 26.972 32.876 27.294 33.1 27.546C33.324 27.798 33.618 28.008 33.982 28.176C34.346 28.3347 34.7333 28.484 35.144 28.624C35.5453 28.736 35.928 28.8667 36.292 29.016C36.6653 29.156 36.992 29.3333 37.272 29.548C37.5613 29.7627 37.7853 30.0333 37.944 30.36C38.112 30.6867 38.196 31.0973 38.196 31.592C38.196 32.068 38.0607 32.4973 37.79 32.88C37.5193 33.2627 37.146 33.566 36.67 33.79C36.2033 34.014 35.6527 34.1307 35.018 34.14ZM45.3013 26.72C45.4227 26.72 45.5207 26.762 45.5953 26.846C45.6793 26.93 45.7213 27.028 45.7213 27.14V33.314C45.7213 34.07 45.572 34.7047 45.2733 35.218C44.9747 35.7407 44.5733 36.1327 44.0693 36.394C43.5653 36.6647 42.9913 36.8 42.3473 36.8C41.946 36.8 41.5727 36.7533 41.2273 36.66C40.8913 36.576 40.616 36.464 40.4013 36.324C40.2893 36.2587 40.2053 36.1793 40.1493 36.086C40.0933 35.9927 40.0887 35.8947 40.1353 35.792C40.182 35.6613 40.252 35.5727 40.3453 35.526C40.448 35.4887 40.5507 35.4933 40.6533 35.54C40.812 35.624 41.0407 35.7267 41.3393 35.848C41.638 35.9693 41.9787 36.03 42.3613 36.03C42.8747 36.03 43.318 35.9227 43.6913 35.708C44.074 35.4933 44.368 35.1807 44.5733 34.77C44.7787 34.3687 44.8813 33.888 44.8813 33.328V32.32L44.9793 32.656C44.8393 32.9453 44.6387 33.202 44.3773 33.426C44.1253 33.65 43.8313 33.8273 43.4953 33.958C43.1687 34.0793 42.8187 34.14 42.4453 34.14C41.8853 34.14 41.4187 34.028 41.0453 33.804C40.6813 33.5707 40.4107 33.2533 40.2333 32.852C40.056 32.4507 39.9673 31.9793 39.9673 31.438V27.14C39.9673 27.028 40.0047 26.93 40.0793 26.846C40.154 26.762 40.2567 26.72 40.3873 26.72C40.5087 26.72 40.6067 26.762 40.6813 26.846C40.7653 26.93 40.8073 27.028 40.8073 27.14V31.312C40.8073 31.9653 40.9473 32.4693 41.2273 32.824C41.5167 33.1787 41.9833 33.356 42.6273 33.356C43.0287 33.356 43.3973 33.2627 43.7333 33.076C44.0693 32.88 44.3447 32.628 44.5593 32.32C44.774 32.0027 44.8813 31.6667 44.8813 31.312V27.14C44.8813 27.028 44.9187 26.93 44.9933 26.846C45.0773 26.762 45.18 26.72 45.3013 26.72ZM47.3816 32.866C47.307 32.754 47.2696 32.6467 47.2696 32.544C47.279 32.432 47.3396 32.3433 47.4516 32.278C47.5263 32.2127 47.6103 32.1847 47.7036 32.194C47.8063 32.2033 47.8996 32.25 47.9836 32.334C48.2356 32.6607 48.539 32.9267 48.8936 33.132C49.2576 33.328 49.687 33.426 50.1816 33.426C50.443 33.426 50.6996 33.384 50.9516 33.3C51.213 33.2067 51.4276 33.0713 51.5956 32.894C51.7636 32.7073 51.8476 32.474 51.8476 32.194C51.8476 31.9047 51.7636 31.6713 51.5956 31.494C51.4276 31.3167 51.2083 31.1767 50.9376 31.074C50.6763 30.9713 50.3963 30.8827 50.0976 30.808C49.7803 30.724 49.4723 30.6307 49.1736 30.528C48.875 30.416 48.609 30.2807 48.3756 30.122C48.1516 29.954 47.9696 29.7533 47.8296 29.52C47.6896 29.2867 47.6196 29.002 47.6196 28.666C47.6196 28.274 47.727 27.9287 47.9416 27.63C48.1563 27.3313 48.4456 27.098 48.8096 26.93C49.183 26.762 49.603 26.678 50.0696 26.678C50.303 26.678 50.555 26.7107 50.8256 26.776C51.0963 26.832 51.3623 26.93 51.6236 27.07C51.885 27.21 52.1183 27.4013 52.3236 27.644C52.4076 27.728 52.4496 27.826 52.4496 27.938C52.4496 28.0407 52.403 28.134 52.3096 28.218C52.235 28.274 52.1463 28.302 52.0436 28.302C51.9503 28.302 51.871 28.2647 51.8056 28.19C51.5816 27.938 51.3156 27.7467 51.0076 27.616C50.6996 27.4853 50.3683 27.42 50.0136 27.42C49.743 27.42 49.4863 27.4667 49.2436 27.56C49.0103 27.644 48.8143 27.7747 48.6556 27.952C48.497 28.1293 48.4176 28.3627 48.4176 28.652C48.4363 28.9227 48.5296 29.142 48.6976 29.31C48.875 29.478 49.1036 29.618 49.3836 29.73C49.673 29.842 49.995 29.9447 50.3496 30.038C50.6483 30.1127 50.933 30.2013 51.2036 30.304C51.4836 30.4067 51.7263 30.5373 51.9316 30.696C52.1463 30.8453 52.3143 31.0367 52.4356 31.27C52.5663 31.5033 52.6316 31.7973 52.6316 32.152C52.6316 32.5627 52.515 32.9173 52.2816 33.216C52.0576 33.5147 51.7543 33.7433 51.3716 33.902C50.989 34.0607 50.5643 34.14 50.0976 34.14C49.5936 34.14 49.1036 34.042 48.6276 33.846C48.161 33.65 47.7456 33.3233 47.3816 32.866ZM53.8881 26.874H57.1501C57.2621 26.874 57.3555 26.916 57.4301 27C57.5048 27.0747 57.5421 27.168 57.5421 27.28C57.5421 27.3827 57.5048 27.4713 57.4301 27.546C57.3555 27.6207 57.2621 27.658 57.1501 27.658H53.8881C53.7761 27.658 53.6781 27.6207 53.5941 27.546C53.5195 27.462 53.4821 27.3687 53.4821 27.266C53.4821 27.154 53.5195 27.0607 53.5941 26.986C53.6781 26.9113 53.7761 26.874 53.8881 26.874ZM55.3301 24.9C55.4515 24.9 55.5495 24.942 55.6241 25.026C55.7081 25.11 55.7501 25.208 55.7501 25.32V32.348C55.7501 32.6093 55.7828 32.8053 55.8481 32.936C55.9228 33.0667 56.0161 33.1553 56.1281 33.202C56.2401 33.2393 56.3521 33.258 56.4641 33.258C56.5388 33.258 56.6041 33.2487 56.6601 33.23C56.7255 33.202 56.7955 33.188 56.8701 33.188C56.9541 33.188 57.0241 33.2207 57.0801 33.286C57.1455 33.3513 57.1781 33.4353 57.1781 33.538C57.1781 33.6687 57.1035 33.7807 56.9541 33.874C56.8048 33.958 56.6275 34 56.4221 34C56.3381 34 56.2121 33.9953 56.0441 33.986C55.8761 33.9673 55.7035 33.916 55.5261 33.832C55.3488 33.7387 55.1995 33.58 55.0781 33.356C54.9661 33.132 54.9101 32.81 54.9101 32.39V25.32C54.9101 25.208 54.9475 25.11 55.0221 25.026C55.1061 24.942 55.2088 24.9 55.3301 24.9ZM62.2599 34.14C61.5413 34.14 60.9066 33.986 60.3559 33.678C59.8053 33.37 59.3759 32.9407 59.0679 32.39C58.7599 31.8393 58.6059 31.1953 58.6059 30.458C58.6059 29.6647 58.7599 28.988 59.0679 28.428C59.3853 27.868 59.7913 27.4387 60.2859 27.14C60.7899 26.832 61.3219 26.678 61.8819 26.678C62.2926 26.678 62.6893 26.7527 63.0719 26.902C63.4639 27.042 63.8093 27.2567 64.1079 27.546C64.4159 27.826 64.6586 28.1713 64.8359 28.582C65.0226 28.9927 65.1253 29.4687 65.1439 30.01C65.1346 30.122 65.0879 30.22 65.0039 30.304C64.9199 30.3787 64.8219 30.416 64.7099 30.416H59.0959L58.9279 29.66H64.4439L64.2619 29.828V29.548C64.2246 29.1093 64.0846 28.736 63.8419 28.428C63.5993 28.12 63.3053 27.8867 62.9599 27.728C62.6146 27.5693 62.2553 27.49 61.8819 27.49C61.6019 27.49 61.3126 27.546 61.0139 27.658C60.7246 27.77 60.4586 27.9473 60.2159 28.19C59.9826 28.4233 59.7913 28.7267 59.6419 29.1C59.4926 29.464 59.4179 29.898 59.4179 30.402C59.4179 30.9527 59.5299 31.452 59.7539 31.9C59.9779 32.348 60.2999 32.7027 60.7199 32.964C61.1493 33.2253 61.6579 33.356 62.2459 33.356C62.5726 33.356 62.8666 33.3093 63.1279 33.216C63.3893 33.1227 63.6179 33.0013 63.8139 32.852C64.0099 32.6933 64.1733 32.53 64.3039 32.362C64.4066 32.278 64.5093 32.236 64.6119 32.236C64.7053 32.236 64.7846 32.2733 64.8499 32.348C64.9246 32.4227 64.9619 32.5067 64.9619 32.6C64.9619 32.712 64.9153 32.81 64.8219 32.894C64.5419 33.23 64.1779 33.524 63.7299 33.776C63.2819 34.0187 62.7919 34.14 62.2599 34.14ZM70.1619 26.79C70.7406 26.79 71.2353 26.944 71.6459 27.252C72.0566 27.5507 72.3366 27.9987 72.4859 28.596L72.2899 28.652L72.3739 28.4C72.4953 28.12 72.6959 27.8587 72.9759 27.616C73.2653 27.364 73.5919 27.1633 73.9559 27.014C74.3199 26.8647 74.6886 26.79 75.0619 26.79C75.6499 26.79 76.1213 26.916 76.4759 27.168C76.8399 27.42 77.1013 27.7607 77.2599 28.19C77.4279 28.61 77.5119 29.086 77.5119 29.618V33.58C77.5119 33.692 77.4699 33.79 77.3859 33.874C77.3113 33.958 77.2133 34 77.0919 34C76.9706 34 76.8679 33.958 76.7839 33.874C76.7093 33.79 76.6719 33.692 76.6719 33.58V29.66C76.6719 29.2773 76.6113 28.9273 76.4899 28.61C76.3686 28.2927 76.1773 28.0407 75.9159 27.854C75.6546 27.6673 75.3046 27.574 74.8659 27.574C74.4833 27.574 74.1146 27.6673 73.7599 27.854C73.4146 28.0407 73.1299 28.2927 72.9059 28.61C72.6913 28.9273 72.5839 29.2773 72.5839 29.66V33.58C72.5839 33.692 72.5419 33.79 72.4579 33.874C72.3833 33.958 72.2853 34 72.1639 34C72.0426 34 71.9399 33.958 71.8559 33.874C71.7813 33.79 71.7439 33.692 71.7439 33.58V29.618C71.7439 29.2353 71.6879 28.89 71.5759 28.582C71.4639 28.274 71.2819 28.0313 71.0299 27.854C70.7779 27.6673 70.4373 27.574 70.0079 27.574C69.6253 27.574 69.2613 27.6673 68.9159 27.854C68.5799 28.0313 68.3046 28.274 68.0899 28.582C67.8846 28.89 67.7819 29.2353 67.7819 29.618V33.58C67.7819 33.692 67.7399 33.79 67.6559 33.874C67.5719 33.958 67.4739 34 67.3619 34C67.2313 34 67.1286 33.958 67.0539 33.874C66.9793 33.79 66.9419 33.692 66.9419 33.58V27.308C66.9419 27.196 66.9793 27.098 67.0539 27.014C67.1379 26.93 67.2406 26.888 67.3619 26.888C67.4833 26.888 67.5813 26.93 67.6559 27.014C67.7399 27.098 67.7819 27.196 67.7819 27.308V28.61L67.4039 29.128C67.4319 28.848 67.5206 28.568 67.6699 28.288C67.8286 28.008 68.0339 27.756 68.2859 27.532C68.5379 27.308 68.8226 27.1307 69.1399 27C69.4666 26.86 69.8073 26.79 70.1619 26.79Z" fill="white" fill-opacity="0.4"/>
</g>
<path d="M29 1V37.5" stroke="white" stroke-opacity="0.4" stroke-linecap="round"/>
<defs>
<filter id="filter0_b_104_1525" x="-2.68408" y="1.06" width="32.9387" height="18.094" filterUnits="userSpaceOnUse" color-interpolation-filters="sRGB">
<feFlood flood-opacity="0" result="BackgroundImageFix"/>
<feGaussianBlur in="BackgroundImage" stdDeviation="2"/>
<feComposite in2="SourceAlpha" operator="in" result="effect1_backgroundBlur_104_1525"/>
<feBlend mode="normal" in="SourceGraphic" in2="effect1_backgroundBlur_104_1525" result="shape"/>
</filter>
<filter id="filter1_b_104_1525" x="27.5039" y="20.06" width="54.0081" height="20.74" filterUnits="userSpaceOnUse" color-interpolation-filters="sRGB">
<feFlood flood-opacity="0" result="BackgroundImageFix"/>
<feGaussianBlur in="BackgroundImage" stdDeviation="2"/>
<feComposite in2="SourceAlpha" operator="in" result="effect1_backgroundBlur_104_1525"/>
<feBlend mode="normal" in="SourceGraphic" in2="effect1_backgroundBlur_104_1525" result="shape"/>
</filter>
</defs>
</svg>
